<svg id="Layer_1" data-name="Layer 1" xmlns="http://www.w3.org/2000/svg" viewBox="0 0 876.58 579.85"><defs><style>.cls-1{fill:#5cacb1;}.cls-2{fill:none;stroke:#fff;stroke-miterlimit:10;stroke-width:4px;}.cls-3,.cls-5{fill:#fff;}.cls-4{fill:#78644b;}.cls-5{font-size:56px;font-family:Yellowtail-Regular, Yellowtail;}</style></defs><title>landog-logo</title><polygon class="cls-1" points="438.29 0 876.58 221.48 709.17 579.85 167.41 579.85 0 221.48 438.29 0"/><polygon class="cls-2" points="438.29 14.47 856.79 225.95 696.94 568.14 179.64 568.14 19.79 225.95 438.29 14.47"/><path class="cls-3" d="M732.46,399.75a14.77,14.77,0,0,1,7.69-1.32,8.06,8.06,0,0,1,7.06,5.43c1.39,3.71,1,8.75-.26,13.48-5.77,20.89-21.05,40.06-37.56,53.65-.47,6.48-.85,12.4-1.54,17.43,7-1.18,16.7-1.94,24.58-6,6.09-3.11,8.46-7.35,11.23-15.89a3.46,3.46,0,0,1,3.71-2.25,2.33,2.33,0,0,1,1.92,3.13c-3.13,9.48-6.39,15.6-14.66,19.75s-18.57,5.64-27.79,6.85c-.27,1.12-.56,2.16-.89,3.13-2.56,7.58-5.55,11-8.15,12.63a17,17,0,0,1-2,1,5.47,5.47,0,0,1-6-1.52,4,4,0,0,1-.71-1c-1.42-2.44-1.39-6,.42-9.62a15.43,15.43,0,0,1,6-6.36,25.31,25.31,0,0,1,6.33-2.61c.57-4,.91-8.78,1.25-14.07-1.18.8-2.36,1.54-3.52,2.21l-.65.37c-10.65,6-17.22,3.9-20.34,2.1a12,12,0,0,1-4.21-4.44c-2.18-3.79-2.71-8.9-.93-14.24a3.9,3.9,0,0,1,1.7-2.06,3.72,3.72,0,0,1,2.21-.57,2.23,2.23,0,0,1,1.88,1.12,2.39,2.39,0,0,1,.12,1.94,13,13,0,0,0,.52,10.4,7.93,7.93,0,0,0,2.75,2.91c3.41,2.1,8.21,1.43,14-1.8l.44-.25a63.82,63.82,0,0,0,6.5-4.37c1.34-16.3,3.69-31.06,9.12-46.53,3.42-8.62,11.15-18.68,19.77-22.68ZM698.15,496.8a8.5,8.5,0,0,0-3.32,3.51c-1.29,2.53-.93,4.38-.32,5,.16.28.28.24.4.19,1-.29,3.31-2.6,5.53-9.18l.21-.67a14.87,14.87,0,0,0-2.5,1.18Zm36.22-92.14c-4.55,2-11.08,8-15.77,18.72C713.11,436,711,449.91,710,463.6c13.57-12.17,26-28.73,30.81-46.48,2.19-8.62.27-12.86-2.76-13.21a7.41,7.41,0,0,0-3.64.75Z" transform="translate(-521.71 -250.08)"/><path class="cls-3" d="M782.57,448.86a2.36,2.36,0,0,1,1.89,3.17c-3.25,9.35-7,15.51-12,17.59a9.38,9.38,0,0,1-2.31.61l-.21.09a8.83,8.83,0,0,1-6.28-2.3,2.76,2.76,0,0,1-.29-.3c-2.28,4.58-5.36,7.95-8.61,9.43a8.12,8.12,0,0,1-3.55.83c-2,0-6.52-.73-7.34-8.5-.51-4.84,1.52-9.71,3.1-12.93,3-6.22,8.57-10.42,13.51-10.38a7.59,7.59,0,0,1,3.15.71c.08-.45.17-.91.26-1.37a3.48,3.48,0,0,1,3.51-2.6,2.37,2.37,0,0,1,2.41,2.83c-.69,3.41-1.33,6.67-1.81,9.13-.28,1.5-.51,2.7-.65,3.46-.5,2.77-.22,4.77.79,5.78a2.94,2.94,0,0,0,1.88.8c2.63-.56,5.86-5.15,8.85-13.93a3.39,3.39,0,0,1,3.73-2.12Zm-30.73,23.71c1.41,0,4.94-2.69,7.33-9.1.71-1.93,1.65-5.25,2.54-8.89l.06-.2c-.22-1.07-.79-2.78-2.22-2.79a3.71,3.71,0,0,0-1.41.33,13.19,13.19,0,0,0-5.82,6.24c-1.4,2.82-2.93,6.53-2.6,10.09.28,3,1.3,4.33,2.12,4.32Z" transform="translate(-521.71 -250.08)"/><path class="cls-3" d="M816.78,437.26a2.38,2.38,0,0,1,1.76,3.25c-3.38,8.58-8.69,14.79-14.5,16.72-4.13,1.37-7.74.08-8.79-3.21-.67-2.08,0-4.8.68-7.69.63-2.59,1.37-5.52.86-7.19s-2.74-1.2-3.4-1c-2.74.94-5.19,3.77-6.5,7.53-1.7,4.88-3.43,11.54-3.75,12.83-.48,2.24-.71,3.37-1.16,5.62a3,3,0,0,1-1.94,2.31,2.48,2.48,0,0,1-1.32.18,2.43,2.43,0,0,1-2.41-2.84c.38-2,.58-3,1-5.05a2.35,2.35,0,0,1,0-.59c0-.08.15-.54.34-1.26,1.79-8.81,2.76-13.23,4.88-22.05a3.47,3.47,0,0,1,3.62-2.44,2.4,2.4,0,0,1,2.37,2.4,15,15,0,0,1,3.29-1.61c5-1.73,9.56,0,10.75,4.05.86,2.92-.1,6.54-.9,9.74-.48,1.9-1.06,4.27-.81,5.11q.2.63,1.65.15c2.92-1,7.33-4.95,10.46-13.06a3.34,3.34,0,0,1,3.8-1.92Z" transform="translate(-521.71 -250.08)"/><path class="cls-3" d="M836.76,435.42c-.85,2.67-.83,4.69,0,5.84a2.92,2.92,0,0,0,1.74,1.06c2.65-.17,6.67-4,10.22-12.44a3.27,3.27,0,0,1,3.84-1.74,2.41,2.41,0,0,1,1.68,3.31c-3.86,9-8.72,14.58-13.95,15.88a8.42,8.42,0,0,1-2.34.27l-.22.06a8.89,8.89,0,0,1-5.87-3.2,3.43,3.43,0,0,1-.24-.33c-2.83,4.19-6.28,7.07-9.66,8.05a8,8,0,0,1-3.58.3c-1.95-.29-6.31-1.69-6.12-9.5.12-4.86,2.75-9.38,4.7-12.32,3.79-5.7,9.75-9,14.59-8.28a7.61,7.61,0,0,1,3,1.15c7.1-20.82,15-41.17,23.78-61.33a3.88,3.88,0,0,1,4.27-1.88c1.71.39,2.57,1.85,1.93,3.26A768.73,768.73,0,0,0,836.76,435.42Zm-17,11.8c1.38.19,5.19-1.93,8.35-7.92.95-1.8,2.29-4.94,3.64-8.41a1.08,1.08,0,0,1,.08-.19c-.08-1.09-.42-2.87-1.82-3.09a3.61,3.61,0,0,0-1.42.12c-1.94.51-4.53,2.35-6.52,5.31-1.73,2.59-3.71,6-3.84,9.6-.11,3,.72,4.47,1.52,4.58Z" transform="translate(-521.71 -250.08)"/><path class="cls-3" d="M884.48,423a2.43,2.43,0,0,1,1.43,3.44,14.9,14.9,0,0,1-10.71,8.29,14.71,14.71,0,0,1-2.32.21,14.54,14.54,0,0,1-1.48-.05,15.44,15.44,0,0,1-10.2,7.66c-5,1-10.8-.94-12.26-8-2.05-9.88,5.32-18.73,13.21-20.25a12.57,12.57,0,0,1,3.16-.2,9,9,0,0,1,6.78,3.38c2.14,2.82,2.53,7,1.26,12.19,3-.13,5.54-2,7.19-5.22a3.24,3.24,0,0,1,3.94-1.45Zm-24.24,14.44a9.21,9.21,0,0,0,5.61-4.13,12,12,0,0,1-5.63-5.74,2.69,2.69,0,0,1,1.75-3.49,2.94,2.94,0,0,1,3.82,1.35,6.35,6.35,0,0,0,2,2.49c.63-3.25.4-5.84-.74-7.31a3.32,3.32,0,0,0-2.58-1.25,5.17,5.17,0,0,0-1.4.1c-4.31.83-9.67,6.68-8.27,13.8.63,3.25,2.62,4.76,5.45,4.18Z" transform="translate(-521.71 -250.08)"/><path class="cls-3" d="M921.65,418.22a2.43,2.43,0,0,1,1.14,3.55c-6.3,10.06-13.83,14.17-20.24,14.92a13.86,13.86,0,0,1-1.92.09c-2.77,6.35-4.1,9.54-6.68,15.92,3-.42,4.54-.62,7.57-1a2.63,2.63,0,1,1,.59,5.21c-4.16.51-6.24.79-10.38,1.39q-6.5,16.59-12,33.52a2.58,2.58,0,0,1-2,1.87c-.3.06-.53,0-.84.05a2.71,2.71,0,0,1-2.25-2.45c0-.2-.54-11.76-5.18-17.87A41.63,41.63,0,0,0,859,463.52a2.48,2.48,0,0,1-1.1-2.66,2.91,2.91,0,0,1,2.22-2.19c9.12-2,18.36-3.67,27.59-5.05,3-7.67,4.55-11.49,7.81-19.11a15.29,15.29,0,0,1-7,3.3,7.87,7.87,0,0,1-3.56-.21c-1.83-.57-5.95-2.57-4.79-10.28.72-4.79,3.81-8.9,6.1-11.55,4.45-5.13,10.73-7.62,15.41-6.19a7.35,7.35,0,0,1,3.86,2.75c.51-1.08.77-1.62,1.29-2.7,1.61-3.7,7.14-1.58,5.56,1.89-3.87,7.87-5.72,11.83-9.28,19.76,4.51-.9,9.84-4.3,14.55-11.95a3.22,3.22,0,0,1,4-1.11Zm-36.16,41c-7.46,1.19-11.18,1.86-18.61,3.35a53.59,53.59,0,0,1,7,7.61,29.12,29.12,0,0,1,4.29,9.65C880.93,471.61,882.4,467.49,885.49,459.26Zm1.39-26.69c1.33.38,5.36-1.19,9.21-6.7l.13-.17c1-1.45,3.07-4.35,4.72-6.92a2.14,2.14,0,0,1-.11-.84c.07-1.09,0-3-1.4-3.39a3.61,3.61,0,0,0-1.42-.08c-2,.24-4.76,1.71-7.09,4.37-2,2.32-4.4,5.45-5,9-.48,2.95.16,4.53.93,4.76Z" transform="translate(-521.71 -250.08)"/><path class="cls-3" d="M1067.91,362.82c-.12,1.44-1.7,2.41-3.51,2.17q-19.9-2.61-40-3.8-13,15.38-24.89,31.57c8.19.28,12.29.49,20.48,1.09a3,3,0,0,1,3,2.85,2.81,2.81,0,0,1-3.22,2.39c-9.59-.7-14.39-.94-24-1.2q-12.06,16.73-23,34.24a2.9,2.9,0,0,1-2.59,1.41,3.36,3.36,0,0,1-1-.23,2.58,2.58,0,0,1-1.83-3c2.4-10.24,1.23-18.22-3.86-23.65-7.31-7.79-20.23-7.58-20.35-7.58a2.82,2.82,0,0,1-3.16-2.44,2.87,2.87,0,0,1,2.88-2.79c16.41-1.16,32.89-1.69,49.33-1.31q11.67-16.29,24.36-31.79c-9.71-.47-19.5-.65-29.23-.56h-.23a3.11,3.11,0,0,1-3.18-2.59c-.07-1.44,1.35-2.64,3.18-2.65a668.93,668.93,0,0,1,77.61,4.77c1.8.24,3.21,1.62,3.09,3.06Zm-79.27,34.93c-10.95-.14-16.42-.07-27.33.35a26.11,26.11,0,0,1,7,5.32,23.71,23.71,0,0,1,6.2,15.36C980,410.29,982.8,406.08,988.64,397.75Z" transform="translate(-521.71 -250.08)"/><path class="cls-3" d="M1021.48,409c4.77.57,7.8,3.52,7.54,7.24l0,.25c-.33,2.7-2.88,6.2-8.91,8.15a39.08,39.08,0,0,1-13.16,1.88c.48,1.63,2.18,2.57,3.67,3.11,8.61,3.1,18.07-2.41,22.7-6.86a3.23,3.23,0,0,1,4.2,0,2.43,2.43,0,0,1,.23,3.72c-7.53,7.14-16.66,10-24.34,9.12a24.78,24.78,0,0,1-4.81-1c-5.09-1.88-8.2-5.72-7.69-9.82,1.13-9.11,11.13-16.28,20.6-15.73Zm-.57,5.21c-4.52-.54-10,3.14-12.58,7.1a33.81,33.81,0,0,0,9.52-1.61c4-1.3,5.11-3.33,5.17-4,0-.36.07-1.24-2.11-1.5Z" transform="translate(-521.71 -250.08)"/><path class="cls-3" d="M1052.39,413.67c4.74.86,7.6,4,7.14,7.68,0,.08,0,.16,0,.25-.48,2.67-3.23,6-9.36,7.6a39.25,39.25,0,0,1-13.27,1.08c.4,1.65,2,2.7,3.5,3.32,8.44,3.62,18.21-1.31,23.08-5.47a3.24,3.24,0,0,1,4.21.22,2.43,2.43,0,0,1,0,3.73c-7.93,6.67-17.22,8.93-24.86,7.63a25.91,25.91,0,0,1-4.75-1.32c-5-2.18-7.88-6.21-7.15-10.27,1.64-9,12-15.58,21.47-14.45Zm-.86,5.16c-4.49-.81-10.15,2.53-13,6.33a34.23,34.23,0,0,0,9.61-1c4.07-1.06,5.3-3,5.39-3.67,0-.36.14-1.24-2-1.63Z" transform="translate(-521.71 -250.08)"/><path class="cls-3" d="M1100.9,437.55a2.43,2.43,0,0,1-.15,3.73c-6.71,5.66-18.65,8.2-27,6a40.52,40.52,0,0,1-8.86-3.41,3.27,3.27,0,0,1-1-.9l-.62-.41a7.92,7.92,0,0,1-2.55-3.17A559,559,0,0,0,1024,485.44a2.51,2.51,0,0,1-2.49,1.13,2.1,2.1,0,0,1-1.11-.47,2.77,2.77,0,0,1-.72-3.69,674.81,674.81,0,0,1,54.92-66.74,3.33,3.33,0,0,1,4.28-.14,2.46,2.46,0,0,1,.51,3.75l-1.42,1.47c4-.94,7.71-.46,10.25,1.49,1.59,1.22,4.78,4.79.79,11.43-2.48,4.13-6.77,6.71-9.76,8.33-.42.23-.84.44-1.27.63a26.35,26.35,0,0,0,18.78-5.54,3.25,3.25,0,0,1,4.19.46Zm-16.45-11.44c-1.16-.89-5.66-1-11.11,2.85a66.29,66.29,0,0,0-6.8,5.86l-.15.14c-.38,1-.8,2.77.33,3.6,1.52,1.11,5.35,1,9.21-1.15,2.64-1.45,5.94-3.47,7.73-6.52,1.5-2.55,1.47-4.27.8-4.78Z" transform="translate(-521.71 -250.08)"/><path class="cls-3" d="M1219.53,415.65c4.29,4.54,5.33,10.18,2.77,14.9-5.67,10.44-19.84,17.07-31.68,16.46-7.34-.38-10.44-4.16-11.53-6.27a8.65,8.65,0,0,1,2-10.65,3.52,3.52,0,0,1,4.42.6c1.25,1.23,1.29,3,.11,3.85a4.1,4.1,0,0,0-1,4.66c.84,1.65,3.41,2.16,5.43,2.32,10.09,0,21.66-5.53,26.27-14.11,1.64-3.05,1.12-6.19-1.39-8.83-12.92-12.42-36.41-3.3-48.46,5.46-9.16,6.66-19,16.81-19.68,29a13.72,13.72,0,0,0,3.89,9.87c5,5.19,14.07,8.79,24.59,2a3.3,3.3,0,0,1,4.17.87,2.46,2.46,0,0,1-.37,3.75c-8.74,5.52-17.22,5.44-24.07,2.51a25.39,25.39,0,0,1-8.49-5.86,19.8,19.8,0,0,1-5.64-13.79c.47-14.61,10.91-24,21.15-32.8,15.39-11.32,41.88-20,57.51-4Z" transform="translate(-521.71 -250.08)"/><path class="cls-3" d="M1221.18,489.52a2.41,2.41,0,0,1-.86,3.65,14.84,14.84,0,0,1-13.63-.49,15.61,15.61,0,0,1-2-1.34c-.41-.32-.8-.66-1.17-1a15.32,15.32,0,0,1-12.8-.6c-4.68-2.46-8.17-7.75-5.2-14.28,4.15-9.12,15.32-11.33,22.61-7.39a13,13,0,0,1,2.69,1.9,9.94,9.94,0,0,1,3.52,7.09c.08,3.63-2.08,7.18-6.16,10.43,2.54,1.87,5.67,2.08,8.93.6a3.42,3.42,0,0,1,4.08,1.44ZM1193,485.07a9.13,9.13,0,0,0,7,.4,12.77,12.77,0,0,1-1.19-8.2,2.54,2.54,0,0,1,3.48-1.62,3.25,3.25,0,0,1,2.31,3.56,6.6,6.6,0,0,0,.14,3.26c2.43-2.15,3.77-4.35,3.71-6.24a3.66,3.66,0,0,0-1.37-2.68,5.85,5.85,0,0,0-1.19-.83c-4-2.16-11.77-1-14.83,5.51-1.39,3-.68,5.46,2,6.84Z" transform="translate(-521.71 -250.08)"/><path class="cls-3" d="M1220.36,497.12c1.85-3.36,5.82-4.13,9.53-1.83s4.87,6.26,2.93,9.57-5.66,4.11-9.49,1.74C1219.71,504.35,1218.56,500.4,1220.36,497.12Z" transform="translate(-521.71 -250.08)"/><polygon class="cls-4" points="511.29 389.92 557.29 241.92 584.29 329.92 603.29 295.92 619.29 320.92 652.29 280.92 672.29 310.92 692.29 281.92 719.29 337.92 750.29 308.92 758.29 330.92 780.29 342.92 778.29 362.92 758.29 406.92 729.29 465.92 175.29 474.92 133.29 427.92 496.29 418.92 511.29 389.92"/><path class="cls-3" d="M692.72,635.92l5.3-.67,1.83-18.86.88-6.79,4.61-4.46,5.29.09,23.47-2.62,27.27-3.32,16.36-28.44.06-3.78L776.33,564l2.35-4.5,6.82-1.39,3.78.06,3.82-2.2.1-6,.85-5.27,13.64-2,126.94,2.92,42.9,10.55,3.72,3.85-.82,3.76,4.52.83-.09,49.89-6.05-.1-.63,37-22,4.91-9.86,2.1s10.5,29.27-16.86,35.62c-8.93,2.07-15.51.87-22.22-4.53-1.39-1.12-4.16-6.89-4.4-8.39-1.61-10.17-2.3-20.07-2.3-20.07L781,665.77s2.49,31-23.25,33.62-31.35-23.21-31.35-23.21l-.57-11.35-12.86.53Z" transform="translate(-521.71 -250.08)"/><text class="cls-5" transform="translate(560.53 413.04)">est. 2019</text><rect class="cls-3" x="748.17" y="738.87" width="86.66" height="5.27" transform="translate(-814.21 526.78) rotate(-45)"/><rect class="cls-3" x="748.17" y="738.87" width="86.66" height="5.27" transform="translate(305.14 1575.42) rotate(-135)"/><rect class="cls-3" x="1110.17" y="733.87" width="86.66" height="5.27" transform="translate(-704.64 781.29) rotate(-45)"/><rect class="cls-3" x="1110.17" y="733.87" width="86.66" height="5.27" transform="translate(926.65 1822.85) rotate(-135)"/></svg>