<svg xmlns="http://www.w3.org/2000/svg" xmlns:xlink="http://www.w3.org/1999/xlink" viewBox="0 0 554.57 142.51"><defs><style>.cls-1,.cls-4{fill:none;}.cls-2{clip-path:url(#clip-path);}.cls-3{fill:#5dacb1;}.cls-4{stroke:#fff;stroke-miterlimit:10;stroke-width:5px;}.cls-5{font-size:68px;font-family:PalmCanyonDrive-Trial, Palm Canyon Drive;}.cls-5,.cls-8{fill:#fff;}.cls-6{fill:#fbb040;}.cls-7{letter-spacing:0em;}</style><clipPath id="clip-path" transform="translate(-172.72 -253.75)"><rect class="cls-1" x="173.75" y="253.75" width="552.5" height="142.5" rx="61.4"/></clipPath></defs><title>landog-logo2</title><g id="Layer_2" data-name="Layer 2"><g class="cls-2"><rect class="cls-3" x="2.07" y="0.01" width="552.5" height="142.5" rx="61.4"/><path class="cls-4" d="M555.39,333.62l2.36-.3.82-8.42.39-3,2.06-2,2.36,0,10.48-1.17L586,317.27l7.3-12.7,0-1.69-.65-1.36,1-2,3-.62,1.69,0,1.7-1,0-2.7.38-2.35,6.09-.91,56.67,1.3L682.55,298l1.66,1.72-.37,1.68,2,.37,0,22.28-2.7,0-.28,16.53-9.83,2.2-4.4.93s4.69,13.07-7.53,15.91c-4,.92-6.92.38-9.92-2a11.3,11.3,0,0,1-2-3.74c-.72-4.54-1-9-1-9l-53.36,2.13s1.12,13.86-10.38,15-14-10.36-14-10.36l-.26-5.06-5.74.24Z" transform="translate(-172.72 -253.75)"/><text class="cls-5" transform="translate(41.46 79.84) scale(1.24 1)">O<tspan class="cls-6" x="35.43" y="0">ver</tspan><tspan class="cls-7" x="94.72" y="0">L</tspan><tspan class="cls-6" x="128.38" y="0">andon</tspan></text><rect class="cls-8" y="85.88" width="366.65" height="2.62"/><rect class="cls-8" x="468.36" y="323.72" width="142.51" height="2.57" transform="translate(691.9 -468.36) rotate(90)"/><rect class="cls-8" x="1.81" y="100.88" width="364.84" height="2.62"/><rect class="cls-8" x="6.61" y="114.88" width="360.04" height="2.62"/><rect class="cls-8" x="16.13" y="128.88" width="350.52" height="2.62"/></g></g></svg>